<?xml version="1.0" encoding="UTF-8"?>
<svg version="1.1" xmlns="http://www.w3.org/2000/svg" width="500" height="500">
<path d="M0 0 C165 0 330 0 500 0 C500 165 500 330 500 500 C335 500 170 500 0 500 C0 335 0 170 0 0 Z " fill="#FEFEFE" transform="translate(0,0)"/>
<path d="M0 0 C165 0 330 0 500 0 C500 165 500 330 500 500 C335 500 170 500 0 500 C0 335 0 170 0 0 Z M25 25 C25 173.5 25 322 25 475 C173.5 475 322 475 475 475 C475 326.5 475 178 475 25 C326.5 25 178 25 25 25 Z " fill="#000000" transform="translate(0,0)"/>
<path d="M0 0 C2.67580648 1.89739005 5.21211251 3.87977093 7.73046875 5.98046875 C8.50519531 6.5940625 9.27992188 7.20765625 10.078125 7.83984375 C25.57593718 20.70595198 35.21941759 40.35347467 38.73046875 59.98046875 C40.50225889 84.25521559 35.43276962 106.9372528 19.73046875 125.98046875 C19.11558594 126.75777344 18.50070312 127.53507813 17.8671875 128.3359375 C4.78429212 144.07333339 -15.24176165 153.86049408 -35.26953125 156.98046875 C-59.71205642 159.01257048 -80.94249716 153.27256064 -100.26953125 137.98046875 C-101.40261719 137.09294922 -101.40261719 137.09294922 -102.55859375 136.1875 C-115.2997095 125.56990354 -125.36145094 109.20047123 -129.26953125 92.98046875 C-129.47191406 92.16578125 -129.67429688 91.35109375 -129.8828125 90.51171875 C-134.7754408 66.81409054 -129.98919045 45.37947987 -117.4765625 25.0703125 C-115.82503002 22.62513741 -114.10010897 20.29405921 -112.26953125 17.98046875 C-111.67785156 17.22507812 -111.08617187 16.4696875 -110.4765625 15.69140625 C-83.41300811 -16.78485901 -35.02669888 -21.63536836 0 0 Z " fill="#FF0000" transform="translate(296.26953125,102.01953125)"/>
<path d="M0 0 C0.44520661 14.91569745 0.77953319 29.83087848 0.98443127 44.75181961 C1.08213575 51.68154082 1.21511371 58.60711982 1.43334961 65.53417969 C1.64407714 72.22614629 1.75353128 78.91293743 1.80266762 85.60836029 C1.83765177 88.15576479 1.90598413 90.70294596 2.00887108 93.24851227 C2.76259345 112.67787554 2.76259345 112.67787554 -1.85466576 118.23030663 C-6.36183142 122.06410874 -11.3384794 124.64146929 -16.74256134 126.98544121 C-19.80124634 128.36010348 -22.46873635 130.075047 -25.26171875 131.92578125 C-27.070019 133.05515757 -28.87861108 134.18406677 -30.6875 135.3125 C-32.73308086 136.58983103 -34.77865354 137.86717517 -36.82421875 139.14453125 C-37.84563965 139.78213379 -38.86706055 140.41973633 -39.91943359 141.07666016 C-44.94746487 144.21589223 -49.97365341 147.35807151 -55 150.5 C-56.99999085 151.75001464 -58.99999086 153.00001462 -61 154.25 C-61.99 154.86875 -62.98 155.4875 -64 156.125 C-73 161.75 -73 161.75 -76.0012207 163.62573242 C-77.99718828 164.87323247 -79.99311939 166.12079088 -81.98901367 167.3684082 C-87.05040916 170.53214182 -92.11247394 173.69479561 -97.17578125 176.85546875 C-99.2213789 178.13277289 -101.26695206 179.41011625 -103.3125 180.6875 C-104.29871338 181.30310791 -105.28492676 181.91871582 -106.30102539 182.55297852 C-111.10871531 185.55683691 -115.90914207 188.57132717 -120.6953125 191.609375 C-122.02502075 192.45302612 -122.02502075 192.45302612 -123.3815918 193.3137207 C-125.04844145 194.37267734 -126.71403175 195.43361966 -128.37817383 196.49682617 C-129.1080249 196.96064697 -129.83787598 197.42446777 -130.58984375 197.90234375 C-131.22784912 198.30960693 -131.86585449 198.71687012 -132.52319336 199.13647461 C-134 200 -134 200 -135 200 C-135.44516957 184.82355027 -135.77951842 169.64740168 -135.98443127 154.46587753 C-136.08214249 147.41512754 -136.21513642 140.3684476 -136.43334961 133.3203125 C-136.64404156 126.51182226 -136.75353021 119.70754954 -136.80266762 112.89600372 C-136.83765641 110.30395374 -136.90599731 107.71212365 -137.00887108 105.12187958 C-137.76213352 85.36138506 -137.76213352 85.36138506 -133.15716743 79.75736046 C-128.67259808 75.91606129 -123.71351607 73.36152264 -118.31614685 71.03686333 C-114.99796375 69.55142108 -112.06081813 67.67074796 -109.00390625 65.70703125 C-106.85783516 64.40709544 -104.71068908 63.10893276 -102.5625 61.8125 C-101.37293015 61.09264077 -100.18348057 60.37258276 -98.99414062 59.65234375 C-96.54488827 58.16933154 -94.09514263 56.68713955 -91.64501953 55.20556641 C-86.33947948 51.99641778 -81.04037941 48.77666732 -75.74093628 45.5574646 C-72.82756883 43.7878519 -69.91376167 42.0189635 -67 40.25 C-65.83333124 39.54167012 -64.66666457 38.83333678 -63.5 38.125 C-61.16666667 36.70833333 -58.83333333 35.29166667 -56.5 33.875 C-55.92262589 33.52445053 -55.34525177 33.17390106 -54.75038147 32.81272888 C-53.58244646 32.1036273 -52.41450822 31.39453104 -51.24656677 30.68544006 C-48.3492794 28.92640426 -45.45204623 27.16727934 -42.55493164 25.40795898 C-37.07384484 22.07961115 -31.5921752 18.75223306 -26.10873413 15.42776489 C-23.5106842 13.85256424 -20.91292343 12.27688707 -18.31518555 10.70117188 C-17.07346846 9.94816596 -15.83160881 9.1953951 -14.58959961 8.44287109 C-12.8705733 7.40130625 -11.15207137 6.35887612 -9.43359375 5.31640625 C-8.45447021 4.72287354 -7.47534668 4.12934082 -6.46655273 3.51782227 C-0.74987936 0 -0.74987936 0 0 0 Z " fill="#000000" transform="translate(392,216)"/>
<path d="M0 0 C2.19826481 1.25114424 4.39592389 2.50333306 6.59326172 3.75610352 C7.20646774 4.10496864 7.81967377 4.45383377 8.45146179 4.81327057 C14.7476798 8.4050092 20.93930873 12.15855272 27.125 15.9375 C28.33711618 16.67598384 29.54935897 17.41425989 30.76171875 18.15234375 C33.26643494 19.67742941 35.77061854 21.20338382 38.27441406 22.72998047 C43.60037957 25.97634103 48.93303633 29.21167115 54.26547241 32.4473877 C57.17078568 34.2105009 60.0755926 35.97444798 62.98046875 37.73828125 C68.30969697 40.97397553 73.6393065 44.20904126 78.96905518 47.44387817 C83.07231772 49.93441947 87.17493538 52.42602077 91.27734375 54.91796875 C95.64265157 57.56952158 100.00994666 60.21775035 104.37890625 62.86328125 C106.37762868 64.07548042 108.37632782 65.28771799 110.375 66.5 C111.24680908 67.02682373 112.11861816 67.55364746 113.0168457 68.09643555 C114.6949827 69.11531013 116.3573006 70.16083924 118.00022888 71.23556519 C121.00338293 73.11315185 121.00338293 73.11315185 124.54315186 74.35691833 C128.80057877 76.14670016 132.32235134 78.14452246 135 82 C137.6461379 90.47112657 136.62164191 99.94184046 136.3671875 108.69140625 C136.34105793 111.32407865 136.32113786 113.95681939 136.30715942 116.58958435 C136.26378909 122.79583484 136.14912587 128.99859752 136.00826657 135.20331758 C135.85131143 142.2718205 135.77469404 149.34049782 135.70453048 156.41031182 C135.55852712 170.94200031 135.31257921 185.47095139 135 200 C132.77709749 198.73703601 130.55506521 197.47258107 128.33349609 196.20727539 C127.71047104 195.85350075 127.08744598 195.4997261 126.44554138 195.13523102 C121.06316665 192.06713407 115.82730153 188.80166831 110.625 185.4375 C108.71929547 184.21529489 106.81302511 182.9939717 104.90625 181.7734375 C103.45025391 180.84096191 103.45025391 180.84096191 101.96484375 179.88964844 C97.03774775 176.74935504 92.08228587 173.65484054 87.125 170.5625 C86.12807129 169.94044678 85.13114258 169.31839355 84.10400391 168.67749023 C82.08023261 167.41511688 80.0563066 166.15299153 78.03222656 164.89111328 C73.01909459 161.76456576 68.00972757 158.63199839 63 155.5 C61.00001829 154.24997074 59.00001828 152.99997074 57 151.75 C53 149.25 49 146.75 45 144.25 C44.00830811 143.63020264 43.01661621 143.01040527 41.99487305 142.37182617 C40.01192625 141.13246422 38.02901559 139.89304446 36.04614258 138.65356445 C31.35190193 135.71932574 26.65728853 132.78568887 21.96139526 129.85409546 C20.28342022 128.80651721 18.60557643 127.75872873 16.92773438 126.7109375 C14.8107764 125.3889553 12.69359839 124.06732536 10.57617188 122.74609375 C9.62677734 122.153125 8.67738281 121.56015625 7.69921875 120.94921875 C6.44371216 120.16550903 6.44371216 120.16550903 5.1628418 119.3659668 C3.42586379 118.26895902 1.70935588 117.13957059 0 116 C-0.36914349 113.94228935 -0.36914349 113.94228935 -0.36076355 111.35568237 C-0.36488754 110.37689117 -0.36901154 109.39809998 -0.3732605 108.38964844 C-0.36247467 107.31215332 -0.35168884 106.2346582 -0.34057617 105.12451172 C-0.34101425 103.99280548 -0.34145233 102.86109924 -0.34190369 101.69509888 C-0.33980713 97.93978861 -0.31643473 94.18492015 -0.29296875 90.4296875 C-0.28737589 87.83179976 -0.28310433 85.23390887 -0.28010559 82.63601685 C-0.26980626 76.48778732 -0.24614197 70.3397412 -0.21605712 64.19158089 C-0.1825521 57.19289939 -0.16603695 50.19421037 -0.15097082 43.19546866 C-0.11959334 28.79689332 -0.06680854 14.39845232 0 0 Z " fill="#000000" transform="translate(108,216)"/>
<path d="M0 0 C0.33 0 0.66 0 1 0 C1 6.6 1 13.2 1 20 C-4.61 20 -10.22 20 -16 20 C-14.04297985 18.6953199 -12.06417543 17.42257633 -10.0625 16.1875 C-3.93203238 11.80859456 -2.01617693 7.01079704 0 0 Z " fill="#F6F6F6" transform="translate(499,480)"/>
<path d="M0 0 C2 4 2 4 2.7890625 5.9296875 C4.97583189 11.01852467 7.62146867 13.68393544 12.1953125 16.7734375 C14 18 14 18 16 20 C10.72 20 5.44 20 0 20 C0 13.4 0 6.8 0 0 Z " fill="#F6F6F6" transform="translate(0,480)"/>
<path d="M0 0 C5.61 0 11.22 0 17 0 C17 5.94 17 11.88 17 18 C15.92621773 16.3893266 14.86445188 14.76837917 13.88671875 13.09765625 C10.31418286 7.03481847 6.81563194 3.33678809 0 1 C0 0.67 0 0.34 0 0 Z " fill="#FAFAFA" transform="translate(483,0)"/>
<path d="M0 0 C5.28 0 10.56 0 16 0 C13.35464483 2.11628413 10.69419103 4.21843498 7.9375 6.1875 C4.1470217 9.30215658 2.66767912 13.49726639 1 18 C0.67 18 0.34 18 0 18 C0 12.06 0 6.12 0 0 Z " fill="#F9F9F9" transform="translate(0,0)"/>
</svg>
